<svg id="svg" version="1.1" xmlns="http://www.w3.org/2000/svg" xmlns:xlink="http://www.w3.org/1999/xlink" width="400" height="504.76190476190476" viewBox="0, 0, 400,504.76190476190476"><g id="svgg"><path id="path0" d="M232.000 21.078 C 232.000 21.310,232.279 22.287,232.619 23.250 C 237.980 38.403,230.250 57.545,211.120 76.493 C 202.860 84.674,196.655 89.776,176.200 105.204 C 148.931 125.773,138.216 136.222,131.086 149.200 C 117.691 173.583,130.459 206.692,164.525 235.915 C 174.115 244.141,194.779 259.354,195.450 258.683 C 195.872 258.261,190.308 248.834,183.008 237.600 C 158.401 199.732,155.571 184.737,169.117 164.000 C 174.366 155.966,180.442 149.501,207.200 123.480 C 223.456 107.672,231.234 97.974,237.221 86.050 C 246.423 67.722,246.704 46.319,237.963 29.604 C 236.068 25.982,232.000 20.164,232.000 21.078 M301.400 99.883 C 266.863 104.573,238.412 114.707,221.545 128.326 C 201.567 144.456,194.361 170.501,203.749 192.641 C 206.375 198.834,207.655 201.026,215.986 213.600 C 222.089 222.813,224.168 226.570,225.883 231.490 C 229.340 241.405,225.771 254.634,217.400 262.936 C 211.501 268.786,210.901 271.102,215.832 268.982 C 217.134 268.423,218.920 267.664,219.800 267.296 C 252.792 253.510,263.208 234.352,251.705 208.611 C 250.065 204.942,243.923 193.701,241.754 190.400 C 228.518 170.255,232.092 154.766,254.000 137.325 C 261.700 131.196,276.043 120.091,278.248 118.551 C 279.155 117.918,281.585 116.214,283.648 114.765 C 287.157 112.301,289.562 110.647,301.168 102.720 C 306.084 99.362,306.094 99.245,301.400 99.883 M135.200 251.868 C 134.430 251.946,132.360 252.183,130.600 252.396 C 128.840 252.610,124.520 252.975,121.000 253.209 C 114.095 253.667,90.585 255.913,89.600 256.209 C 89.270 256.308,86.312 256.851,83.026 257.416 C 60.099 261.360,47.917 269.261,49.974 278.852 C 51.914 287.900,64.599 293.916,91.226 298.417 C 115.066 302.447,164.084 302.972,201.350 299.596 C 208.637 298.936,215.500 298.221,216.600 298.008 C 217.700 297.795,220.760 297.340,223.400 296.998 C 241.943 294.592,261.381 289.447,272.625 283.969 C 280.038 280.358,290.400 271.878,290.400 269.424 C 290.400 268.196,290.611 268.205,285.060 269.198 C 278.786 270.321,264.774 272.231,255.800 273.185 C 251.620 273.630,246.670 274.169,244.800 274.384 C 211.328 278.231,138.174 279.498,119.000 276.564 C 108.770 274.999,101.505 271.737,103.038 269.398 C 106.317 264.394,114.300 260.583,132.800 255.189 C 143.514 252.065,144.317 250.954,135.200 251.868 M323.400 252.999 C 316.873 253.930,308.572 257.276,303.464 261.036 C 301.046 262.815,300.964 262.769,306.000 262.459 C 322.941 261.415,336.853 269.531,339.159 281.802 C 342.882 301.617,333.414 317.648,303.834 341.614 C 297.478 346.764,292.800 350.779,292.800 351.085 C 292.800 352.043,308.071 349.018,315.283 346.632 C 351.403 334.682,371.655 307.558,365.789 278.991 C 362.067 260.862,344.365 250.007,323.400 252.999 M115.652 305.438 C 87.584 311.579,77.556 326.614,94.618 336.973 C 96.274 337.978,97.704 338.800,97.796 338.800 C 97.889 338.800,99.097 339.335,100.482 339.989 C 128.679 353.301,198.207 354.423,247.590 342.362 C 258.588 339.676,274.971 334.362,276.276 333.058 C 276.345 332.988,274.916 332.185,273.101 331.273 C 271.285 330.361,268.270 328.348,266.400 326.800 C 253.267 315.928,246.669 314.296,236.696 319.454 C 232.435 321.657,209.325 325.040,190.600 326.201 C 154.082 328.466,128.493 324.086,117.300 313.656 C 115.463 311.945,115.771 310.732,118.911 307.326 C 121.258 304.780,120.546 304.367,115.652 305.438 M126.000 354.964 C 110.406 359.258,105.149 363.720,104.045 373.600 C 103.322 380.072,104.267 381.138,115.400 386.413 C 152.168 403.835,227.086 399.504,266.360 377.686 L 268.919 376.264 267.302 375.787 C 264.938 375.089,261.438 372.821,257.800 369.628 C 244.185 357.682,240.233 356.705,227.547 362.148 C 225.308 363.109,216.567 365.057,208.600 366.370 C 169.222 372.863,140.566 369.872,133.561 358.537 L 132.705 357.152 133.952 355.599 C 136.364 352.599,134.987 352.489,126.000 354.964 M56.495 379.404 C 34.264 382.234,20.165 389.537,16.546 400.096 C 10.765 416.960,32.725 433.283,73.200 442.210 C 75.510 442.719,78.570 443.405,80.000 443.734 C 81.430 444.063,83.950 444.538,85.600 444.790 C 87.250 445.041,89.950 445.507,91.600 445.824 C 116.700 450.644,170.707 452.980,207.400 450.832 C 223.906 449.866,238.142 448.876,239.600 448.593 C 240.150 448.486,244.110 448.033,248.400 447.585 C 290.968 443.145,329.463 430.257,342.420 416.107 C 354.182 403.260,349.571 386.308,333.620 383.757 L 332.139 383.520 332.322 387.009 C 333.424 407.997,307.421 420.596,248.521 427.613 C 245.542 427.968,233.535 428.915,217.800 430.036 C 203.016 431.089,162.907 431.086,148.000 430.031 C 137.348 429.277,123.444 427.989,119.400 427.381 C 117.200 427.050,113.420 426.508,111.000 426.177 C 101.497 424.874,88.572 421.932,80.000 419.118 C 56.001 411.242,51.271 396.095,71.231 391.033 C 74.840 390.117,76.835 389.901,91.800 388.802 C 100.306 388.177,100.607 387.890,95.632 385.163 C 86.644 380.235,69.630 377.731,56.495 379.404 M380.974 425.156 C 380.080 425.562,378.190 426.932,376.774 428.201 C 362.248 441.218,333.017 454.427,303.200 461.449 C 290.229 464.504,274.444 467.396,264.200 468.595 C 261.120 468.955,256.620 469.500,254.200 469.807 C 228.872 473.011,179.673 473.188,150.200 470.180 C 137.867 468.921,129.661 468.014,127.000 467.614 C 125.460 467.382,121.140 466.747,117.400 466.202 C 108.755 464.942,88.743 461.232,82.800 459.788 C 79.217 458.917,87.970 462.486,96.000 465.169 C 122.268 473.948,151.444 479.712,193.352 484.400 C 204.101 485.602,247.838 485.595,256.000 484.389 C 258.970 483.950,265.090 483.065,269.600 482.423 C 296.355 478.610,309.139 476.283,321.600 472.958 C 354.745 464.113,374.530 449.614,383.021 427.946 C 384.530 424.095,384.226 423.679,380.974 425.156 " stroke="none" fill="#050505" fill-rule="evenodd"></path><path id="path1" d="M0.000 252.200 L 0.000 504.400 200.000 504.400 L 400.000 504.400 400.000 252.200 L 400.000 0.000 200.000 0.000 L 0.000 0.000 0.000 252.200 M233.730 22.230 C 245.772 37.021,248.213 61.848,239.607 81.984 C 233.099 97.209,222.579 109.871,194.041 136.827 C 154.078 174.573,152.292 189.474,182.203 235.600 C 187.563 243.866,189.195 246.419,189.778 247.451 C 190.135 248.083,190.988 249.500,191.674 250.600 C 193.065 252.831,196.400 259.023,196.400 259.374 C 196.400 260.847,180.050 249.292,167.253 238.776 C 131.845 209.680,117.252 175.568,129.704 151.000 C 137.317 135.979,150.142 123.678,184.758 98.200 C 198.247 88.271,209.804 77.968,218.209 68.379 C 232.259 52.348,237.086 34.187,231.002 20.245 C 230.368 18.794,231.751 19.799,233.730 22.230 M306.520 99.053 C 306.837 99.370,304.035 101.382,291.000 110.197 C 289.020 111.536,286.590 113.204,285.600 113.903 C 284.610 114.603,283.260 115.548,282.600 116.003 C 279.614 118.064,269.390 125.727,265.400 128.893 C 262.980 130.814,258.930 134.011,256.400 135.997 C 232.385 154.851,229.005 166.728,241.383 188.766 C 242.321 190.435,244.288 193.870,245.756 196.400 C 257.889 217.312,259.704 229.331,252.703 242.400 C 246.809 253.404,239.096 259.206,217.899 268.582 C 210.809 271.718,210.169 269.484,216.415 263.400 C 223.197 256.795,227.150 247.466,226.672 239.200 C 226.212 231.265,224.092 226.515,214.674 212.317 C 199.761 189.837,196.719 178.255,200.826 159.600 C 206.804 132.446,235.241 112.320,280.600 103.139 C 282.800 102.694,285.410 102.162,286.400 101.957 C 287.390 101.752,290.540 101.212,293.400 100.757 C 296.260 100.303,300.040 99.694,301.800 99.405 C 305.683 98.767,306.195 98.729,306.520 99.053 M143.074 251.819 C 143.150 252.050,140.825 253.017,137.906 253.968 C 134.988 254.920,131.880 255.933,131.000 256.221 C 130.120 256.509,127.960 257.134,126.200 257.609 C 116.124 260.331,109.703 263.475,105.100 267.943 C 102.275 270.684,102.249 270.412,105.500 272.118 C 113.291 276.208,119.701 276.929,156.000 277.795 C 171.146 278.156,213.501 276.817,225.400 275.601 C 227.600 275.376,233.900 274.827,239.400 274.381 C 244.900 273.934,251.560 273.295,254.200 272.960 C 256.840 272.625,262.510 271.920,266.800 271.393 C 271.090 270.866,278.192 269.891,282.582 269.226 C 288.326 268.356,290.641 268.143,290.841 268.466 C 292.412 271.008,281.463 280.337,271.413 285.019 C 258.303 291.127,242.140 294.976,213.600 298.787 C 190.517 301.870,139.488 303.403,119.400 301.618 C 116.760 301.383,111.044 300.921,106.697 300.590 C 77.102 298.342,55.568 291.193,50.535 281.946 C 49.419 279.894,49.501 273.971,50.677 271.767 C 55.886 262.002,75.870 256.201,114.000 253.384 C 118.510 253.051,125.170 252.441,128.800 252.028 C 135.869 251.225,142.843 251.123,143.074 251.819 M341.000 253.331 C 358.663 258.304,367.952 271.649,367.079 290.800 C 365.897 316.741,343.794 339.397,310.800 348.488 C 303.718 350.440,292.000 352.208,292.000 351.325 C 292.000 350.915,296.785 346.748,303.190 341.581 C 309.111 336.804,309.004 336.893,312.572 333.819 C 330.971 317.966,339.331 304.147,339.323 289.600 C 339.316 276.229,333.743 268.629,320.800 264.337 C 316.822 263.017,306.651 262.466,301.600 263.296 L 299.800 263.591 301.548 262.043 C 306.490 257.667,316.269 253.514,324.600 252.255 C 328.128 251.721,337.457 252.333,341.000 253.331 M120.320 304.880 C 121.050 305.610,120.953 305.822,118.800 308.200 C 116.085 311.198,116.092 312.222,118.845 314.398 C 132.814 325.440,162.702 328.988,204.800 324.604 C 210.190 324.042,214.870 323.504,215.200 323.407 C 215.530 323.311,219.220 322.696,223.400 322.040 C 229.423 321.096,232.369 320.397,237.600 318.674 C 250.437 314.444,252.436 314.994,267.058 326.775 C 270.218 329.321,272.895 330.919,276.200 332.235 L 277.800 332.872 275.600 333.862 C 266.778 337.834,249.822 342.723,236.200 345.223 C 233.780 345.667,229.910 346.383,227.600 346.815 C 225.290 347.246,220.430 347.953,216.800 348.385 C 213.170 348.818,208.760 349.351,207.000 349.570 C 195.142 351.047,160.533 351.574,147.846 350.471 C 99.600 346.275,75.490 332.354,89.724 316.911 C 95.101 311.079,117.651 302.211,120.320 304.880 M135.362 353.158 C 136.016 353.881,135.991 353.983,134.824 355.311 C 133.220 357.138,133.275 357.665,135.291 359.852 C 143.845 369.132,166.431 371.671,200.400 367.170 C 205.350 366.514,209.670 365.896,210.000 365.795 C 210.330 365.694,212.940 365.178,215.800 364.648 C 221.977 363.502,226.852 362.132,230.636 360.476 C 236.678 357.832,241.209 357.882,246.618 360.652 C 249.694 362.228,250.602 362.910,257.342 368.706 C 261.627 372.390,265.352 374.742,268.500 375.751 C 269.881 376.193,269.122 376.800,263.900 379.425 C 252.568 385.120,236.352 390.413,222.200 393.034 C 220.440 393.361,217.110 393.982,214.800 394.415 C 210.308 395.258,199.491 396.554,191.000 397.268 C 184.631 397.803,163.997 397.789,158.800 397.246 C 150.808 396.412,141.681 395.119,138.800 394.415 C 137.150 394.011,135.097 393.559,134.237 393.411 C 126.031 391.991,110.609 385.350,104.646 380.667 L 103.092 379.447 103.307 375.624 C 103.949 364.211,110.135 358.423,125.800 354.578 C 128.000 354.038,130.700 353.342,131.800 353.031 C 134.462 352.277,134.568 352.281,135.362 353.158 M72.366 378.821 C 81.465 379.473,88.392 381.111,94.200 383.982 C 97.327 385.528,100.399 387.721,100.000 388.124 C 99.710 388.417,93.343 389.104,84.423 389.806 C 70.468 390.902,65.957 392.115,62.206 395.777 C 51.411 406.316,70.248 419.139,104.562 424.611 C 107.883 425.141,111.352 425.756,112.272 425.978 C 114.899 426.613,139.391 429.111,147.800 429.602 C 169.648 430.878,217.300 430.325,233.000 428.614 C 236.674 428.213,239.440 427.946,247.600 427.203 C 252.330 426.773,257.280 426.227,258.600 425.991 C 259.920 425.754,263.970 425.128,267.600 424.599 C 311.476 418.203,335.005 403.657,331.818 384.900 C 331.470 382.847,331.620 382.815,336.008 384.024 C 350.155 387.922,354.080 403.424,343.868 415.065 C 337.322 422.527,328.860 427.598,312.000 434.161 C 307.362 435.966,296.114 439.264,288.600 441.021 C 286.400 441.535,283.790 442.161,282.800 442.410 C 280.361 443.026,271.703 444.642,265.600 445.622 C 262.850 446.063,259.009 446.695,257.064 447.027 C 255.119 447.358,248.729 448.069,242.864 448.606 C 236.999 449.144,231.570 449.678,230.800 449.792 C 212.616 452.501,131.155 452.508,118.963 449.802 C 118.503 449.700,114.003 449.174,108.963 448.634 C 103.923 448.094,98.270 447.373,96.400 447.032 C 94.530 446.691,90.840 446.059,88.200 445.628 C 36.301 437.142,7.539 417.987,16.948 398.174 C 20.395 390.917,30.191 384.460,42.084 381.607 C 43.780 381.200,45.320 380.773,45.505 380.659 C 46.113 380.283,54.871 379.120,59.381 378.816 C 65.936 378.374,66.123 378.374,72.366 378.821 M384.500 424.234 C 384.891 424.624,383.298 428.761,381.040 433.223 C 369.048 456.921,342.668 471.168,297.019 478.603 C 293.730 479.138,290.130 479.762,289.019 479.989 C 287.909 480.215,283.760 480.851,279.800 481.403 C 261.207 483.990,255.640 484.795,253.645 485.182 C 250.091 485.872,199.478 485.736,195.000 485.025 C 193.020 484.711,189.391 484.258,186.935 484.019 C 180.049 483.349,164.493 481.265,158.200 480.170 C 156.220 479.825,151.990 479.109,148.800 478.579 C 125.415 474.695,99.798 467.797,83.705 461.052 C 76.752 458.137,77.478 458.130,90.800 460.986 C 116.028 466.394,147.344 470.221,178.000 471.641 C 189.296 472.164,225.272 471.899,232.400 471.240 C 234.930 471.006,241.500 470.448,247.000 469.999 C 300.344 465.646,353.187 448.777,375.047 429.122 C 379.815 424.834,383.299 423.033,384.500 424.234 " stroke="none" fill="#f3f3f3" fill-rule="evenodd"></path><path id="path2" d="M230.800 20.067 C 230.800 20.323,230.923 20.411,231.072 20.261 C 231.222 20.111,231.897 20.486,232.572 21.094 L 233.800 22.200 232.625 20.900 C 231.402 19.546,230.800 19.272,230.800 20.067 M233.742 33.000 C 233.741 34.980,233.808 35.840,233.892 34.912 C 233.976 33.984,233.977 32.364,233.895 31.312 C 233.812 30.260,233.743 31.020,233.742 33.000 M217.829 68.762 L 216.658 70.200 218.009 68.913 C 218.751 68.205,219.278 67.558,219.179 67.475 C 219.081 67.392,218.473 67.971,217.829 68.762 M214.181 72.900 L 212.600 74.600 214.300 73.019 C 215.881 71.548,216.184 71.200,215.881 71.200 C 215.816 71.200,215.051 71.965,214.181 72.900 M207.578 79.500 L 206.200 81.000 207.700 79.622 C 209.096 78.338,209.384 78.000,209.078 78.000 C 209.012 78.000,208.337 78.675,207.578 79.500 M203.978 82.700 L 202.600 84.200 204.100 82.822 C 204.925 82.063,205.600 81.388,205.600 81.322 C 205.600 81.016,205.262 81.304,203.978 82.700 M200.575 85.700 L 199.400 87.000 200.700 85.825 C 201.912 84.730,202.184 84.400,201.875 84.400 C 201.806 84.400,201.221 84.985,200.575 85.700 M235.800 89.200 C 235.459 89.860,235.269 90.400,235.379 90.400 C 235.489 90.400,235.859 89.860,236.200 89.200 C 236.541 88.540,236.731 88.000,236.621 88.000 C 236.511 88.000,236.141 88.540,235.800 89.200 M305.400 99.200 C 306.501 99.673,306.892 99.673,306.600 99.200 C 306.464 98.980,305.958 98.813,305.476 98.828 C 304.631 98.855,304.629 98.869,305.400 99.200 M302.100 99.476 C 302.485 99.576,303.115 99.576,303.500 99.476 C 303.885 99.375,303.570 99.293,302.800 99.293 C 302.030 99.293,301.715 99.375,302.100 99.476 M257.000 109.414 C 256.000 109.896,255.966 109.951,256.800 109.748 C 257.933 109.471,259.207 108.821,258.600 108.830 C 258.380 108.833,257.660 109.096,257.000 109.414 M216.589 114.500 L 213.800 117.400 216.700 114.611 C 218.295 113.077,219.600 111.772,219.600 111.711 C 219.600 111.417,219.180 111.806,216.589 114.500 M285.400 113.835 L 284.200 114.866 285.500 114.006 C 286.215 113.533,286.800 113.068,286.800 112.973 C 286.800 112.673,286.631 112.778,285.400 113.835 M244.400 114.200 C 243.850 114.514,243.580 114.772,243.800 114.772 C 244.020 114.772,244.650 114.514,245.200 114.200 C 245.750 113.886,246.020 113.628,245.800 113.628 C 245.580 113.628,244.950 113.886,244.400 114.200 M204.592 126.500 L 201.000 130.200 204.700 126.608 C 208.136 123.272,208.582 122.800,208.292 122.800 C 208.232 122.800,206.567 124.465,204.592 126.500 M144.786 130.700 L 142.600 133.000 144.900 130.814 C 147.037 128.782,147.383 128.400,147.086 128.400 C 147.024 128.400,145.989 129.435,144.786 130.700 M216.378 132.300 L 215.000 133.800 216.500 132.422 C 217.896 131.138,218.184 130.800,217.878 130.800 C 217.812 130.800,217.137 131.475,216.378 132.300 M196.581 134.100 L 195.000 135.800 196.700 134.219 C 198.281 132.748,198.584 132.400,198.281 132.400 C 198.216 132.400,197.451 133.165,196.581 134.100 M186.400 143.800 C 185.428 144.790,184.723 145.600,184.833 145.600 C 184.943 145.600,185.828 144.790,186.800 143.800 C 187.772 142.810,188.477 142.000,188.367 142.000 C 188.257 142.000,187.372 142.810,186.400 143.800 M246.800 143.800 C 245.828 144.790,245.123 145.600,245.233 145.600 C 245.343 145.600,246.228 144.790,247.200 143.800 C 248.172 142.810,248.877 142.000,248.767 142.000 C 248.657 142.000,247.772 142.810,246.800 143.800 M243.375 147.300 L 242.200 148.600 243.500 147.425 C 244.215 146.779,244.800 146.194,244.800 146.125 C 244.800 145.816,244.470 146.088,243.375 147.300 M179.586 151.100 L 177.400 153.400 179.700 151.214 C 181.837 149.182,182.183 148.800,181.886 148.800 C 181.824 148.800,180.789 149.835,179.586 151.100 M201.429 156.629 C 201.281 157.215,201.238 157.772,201.332 157.866 C 201.427 157.960,201.624 157.558,201.771 156.971 C 201.919 156.385,201.962 155.828,201.868 155.734 C 201.773 155.640,201.576 156.042,201.429 156.629 M126.222 160.222 C 126.072 161.025,126.028 161.762,126.126 161.860 C 126.224 161.957,126.427 161.381,126.578 160.578 C 126.728 159.775,126.772 159.038,126.674 158.940 C 126.576 158.843,126.373 159.419,126.222 160.222 M234.114 167.400 C 234.117 168.500,234.195 168.903,234.287 168.295 C 234.379 167.686,234.377 166.786,234.282 166.295 C 234.187 165.803,234.111 166.300,234.114 167.400 M125.331 169.800 C 125.333 171.340,125.405 171.921,125.492 171.091 C 125.579 170.261,125.577 169.001,125.489 168.291 C 125.400 167.581,125.329 168.260,125.331 169.800 M199.348 172.000 C 199.348 174.310,199.414 175.255,199.495 174.100 C 199.576 172.945,199.576 171.055,199.495 169.900 C 199.414 168.745,199.348 169.690,199.348 172.000 M161.337 187.000 C 161.339 188.760,161.409 189.430,161.493 188.489 C 161.578 187.549,161.577 186.109,161.491 185.289 C 161.405 184.470,161.336 185.240,161.337 187.000 M149.600 222.200 C 150.346 222.970,151.047 223.600,151.157 223.600 C 151.267 223.600,150.746 222.970,150.000 222.200 C 149.254 221.430,148.553 220.800,148.443 220.800 C 148.333 220.800,148.854 221.430,149.600 222.200 M256.493 224.400 C 256.493 225.170,256.575 225.485,256.676 225.100 C 256.776 224.715,256.776 224.085,256.676 223.700 C 256.575 223.315,256.493 223.630,256.493 224.400 M256.493 228.800 C 256.493 229.570,256.575 229.885,256.676 229.500 C 256.776 229.115,256.776 228.485,256.676 228.100 C 256.575 227.715,256.493 228.030,256.493 228.800 M159.600 232.200 C 160.346 232.970,161.047 233.600,161.157 233.600 C 161.267 233.600,160.746 232.970,160.000 232.200 C 159.254 231.430,158.553 230.800,158.443 230.800 C 158.333 230.800,158.854 231.430,159.600 232.200 M226.928 240.400 C 226.928 241.830,227.001 242.415,227.089 241.700 C 227.178 240.985,227.178 239.815,227.089 239.100 C 227.001 238.385,226.928 238.970,226.928 240.400 M175.744 245.509 C 176.060 246.021,178.400 247.753,178.400 247.475 C 178.400 247.376,177.739 246.791,176.932 246.175 C 176.124 245.559,175.589 245.259,175.744 245.509 M246.400 251.000 C 245.428 251.990,244.723 252.800,244.833 252.800 C 244.943 252.800,245.828 251.990,246.800 251.000 C 247.772 250.010,248.477 249.200,248.367 249.200 C 248.257 249.200,247.372 250.010,246.400 251.000 M135.905 251.483 C 136.402 251.579,137.122 251.575,137.505 251.475 C 137.887 251.375,137.480 251.296,136.600 251.301 C 135.720 251.305,135.407 251.387,135.905 251.483 M141.907 251.489 C 142.406 251.580,142.710 251.822,142.583 252.027 C 142.456 252.232,142.558 252.400,142.810 252.400 C 143.722 252.400,142.912 251.399,141.969 251.361 C 141.067 251.325,141.062 251.334,141.907 251.489 M127.700 252.276 C 128.085 252.376,128.715 252.376,129.100 252.276 C 129.485 252.175,129.170 252.093,128.400 252.093 C 127.630 252.093,127.315 252.175,127.700 252.276 M326.300 252.282 C 326.795 252.378,327.605 252.378,328.100 252.282 C 328.595 252.187,328.190 252.109,327.200 252.109 C 326.210 252.109,325.805 252.187,326.300 252.282 M332.905 252.287 C 333.514 252.379,334.414 252.377,334.905 252.282 C 335.397 252.187,334.900 252.111,333.800 252.114 C 332.700 252.117,332.297 252.195,332.905 252.287 M124.300 252.682 C 124.795 252.778,125.605 252.778,126.100 252.682 C 126.595 252.587,126.190 252.509,125.200 252.509 C 124.210 252.509,123.805 252.587,124.300 252.682 M322.900 252.676 C 323.285 252.776,323.915 252.776,324.300 252.676 C 324.685 252.575,324.370 252.493,323.600 252.493 C 322.830 252.493,322.515 252.575,322.900 252.676 M100.100 254.676 C 100.485 254.776,101.115 254.776,101.500 254.676 C 101.885 254.575,101.570 254.493,100.800 254.493 C 100.030 254.493,99.715 254.575,100.100 254.676 M96.305 255.083 C 96.802 255.179,97.522 255.175,97.905 255.075 C 98.287 254.975,97.880 254.896,97.000 254.901 C 96.120 254.905,95.807 254.987,96.305 255.083 M217.387 262.500 L 215.000 265.000 217.500 262.613 C 218.875 261.299,220.000 260.174,220.000 260.113 C 220.000 259.817,219.605 260.178,217.387 262.500 M357.183 262.500 C 358.164 263.545,359.019 264.400,359.083 264.400 C 359.384 264.400,359.066 264.041,357.300 262.383 L 355.400 260.600 357.183 262.500 M113.500 261.829 C 111.949 262.670,112.125 262.961,113.700 262.159 C 115.208 261.393,115.475 261.194,114.967 261.216 C 114.765 261.225,114.105 261.501,113.500 261.829 M231.500 261.829 C 230.005 262.640,230.096 262.978,231.600 262.200 C 232.260 261.859,232.800 261.494,232.800 261.390 C 232.800 261.132,232.757 261.147,231.500 261.829 M300.800 262.600 C 299.957 263.498,299.936 263.600,300.597 263.600 C 301.002 263.600,301.213 263.480,301.066 263.332 C 300.919 263.185,301.097 262.735,301.461 262.332 C 302.471 261.216,301.872 261.459,300.800 262.600 M308.100 262.687 C 308.705 262.778,309.695 262.778,310.300 262.687 C 310.905 262.595,310.410 262.520,309.200 262.520 C 307.990 262.520,307.495 262.595,308.100 262.687 M104.800 267.800 C 103.828 268.790,103.123 269.600,103.233 269.600 C 103.343 269.600,104.228 268.790,105.200 267.800 C 106.172 266.810,106.877 266.000,106.767 266.000 C 106.657 266.000,105.772 266.810,104.800 267.800 M51.923 269.900 C 51.218 270.721,50.690 271.600,50.901 271.600 C 50.983 271.600,51.449 271.060,51.937 270.400 C 52.901 269.096,52.892 268.772,51.923 269.900 M287.781 273.700 L 286.200 275.400 287.900 273.819 C 289.481 272.348,289.784 272.000,289.481 272.000 C 289.416 272.000,288.651 272.765,287.781 273.700 M257.700 272.676 C 258.085 272.776,258.715 272.776,259.100 272.676 C 259.485 272.575,259.170 272.493,258.400 272.493 C 257.630 272.493,257.315 272.575,257.700 272.676 M233.305 275.087 C 233.914 275.179,234.814 275.177,235.305 275.082 C 235.797 274.987,235.300 274.911,234.200 274.914 C 233.100 274.917,232.697 274.995,233.305 275.087 M227.700 275.487 C 228.305 275.578,229.295 275.578,229.900 275.487 C 230.505 275.395,230.010 275.320,228.800 275.320 C 227.590 275.320,227.095 275.395,227.700 275.487 M210.305 276.683 C 210.802 276.779,211.522 276.775,211.905 276.675 C 212.287 276.575,211.880 276.496,211.000 276.501 C 210.120 276.505,209.807 276.587,210.305 276.683 M126.900 277.087 C 127.505 277.178,128.495 277.178,129.100 277.087 C 129.705 276.995,129.210 276.920,128.000 276.920 C 126.790 276.920,126.295 276.995,126.900 277.087 M202.300 277.089 C 203.015 277.178,204.185 277.178,204.900 277.089 C 205.615 277.001,205.030 276.928,203.600 276.928 C 202.170 276.928,201.585 277.001,202.300 277.089 M135.500 277.495 C 136.655 277.576,138.545 277.576,139.700 277.495 C 140.855 277.414,139.910 277.348,137.600 277.348 C 135.290 277.348,134.345 277.414,135.500 277.495 M192.100 277.494 C 193.145 277.576,194.855 277.576,195.900 277.494 C 196.945 277.412,196.090 277.344,194.000 277.344 C 191.910 277.344,191.055 277.412,192.100 277.494 M145.315 277.896 C 146.588 277.976,148.568 277.975,149.715 277.894 C 150.862 277.814,149.820 277.749,147.400 277.750 C 144.980 277.751,144.042 277.816,145.315 277.896 M153.911 277.893 C 154.851 277.978,156.291 277.977,157.111 277.891 C 157.930 277.805,157.160 277.736,155.400 277.737 C 153.640 277.739,152.970 277.809,153.911 277.893 M175.921 277.899 C 178.188 277.970,181.788 277.970,183.921 277.898 C 186.055 277.826,184.200 277.768,179.800 277.768 C 175.400 277.768,173.655 277.827,175.921 277.899 M53.400 285.600 C 54.483 286.700,55.460 287.600,55.570 287.600 C 55.680 287.600,54.883 286.700,53.800 285.600 C 52.717 284.500,51.740 283.600,51.630 283.600 C 51.520 283.600,52.317 284.500,53.400 285.600 M366.893 284.800 C 366.893 285.570,366.975 285.885,367.076 285.500 C 367.176 285.115,367.176 284.485,367.076 284.100 C 366.975 283.715,366.893 284.030,366.893 284.800 M366.901 291.800 C 366.905 292.680,366.987 292.993,367.083 292.495 C 367.179 291.998,367.175 291.278,367.075 290.895 C 366.975 290.513,366.896 290.920,366.901 291.800 M70.600 294.400 C 71.040 294.589,71.670 294.744,72.000 294.744 C 72.378 294.744,72.304 294.617,71.800 294.400 C 71.360 294.211,70.730 294.056,70.400 294.056 C 70.022 294.056,70.096 294.183,70.600 294.400 M210.100 299.076 C 210.485 299.176,211.115 299.176,211.500 299.076 C 211.885 298.975,211.570 298.893,210.800 298.893 C 210.030 298.893,209.715 298.975,210.100 299.076 M206.500 299.476 C 206.885 299.576,207.515 299.576,207.900 299.476 C 208.285 299.375,207.970 299.293,207.200 299.293 C 206.430 299.293,206.115 299.375,206.500 299.476 M202.900 299.876 C 203.285 299.976,203.915 299.976,204.300 299.876 C 204.685 299.775,204.370 299.693,203.600 299.693 C 202.830 299.693,202.515 299.775,202.900 299.876 M193.300 300.676 C 193.685 300.776,194.315 300.776,194.700 300.676 C 195.085 300.575,194.770 300.493,194.000 300.493 C 193.230 300.493,192.915 300.575,193.300 300.676 M118.705 301.483 C 119.202 301.579,119.922 301.575,120.305 301.475 C 120.687 301.375,120.280 301.296,119.400 301.301 C 118.520 301.305,118.207 301.387,118.705 301.483 M179.505 301.483 C 180.002 301.579,180.722 301.575,181.105 301.475 C 181.487 301.375,181.080 301.296,180.200 301.301 C 179.320 301.305,179.007 301.387,179.505 301.483 M123.900 301.895 C 125.055 301.976,126.945 301.976,128.100 301.895 C 129.255 301.814,128.310 301.748,126.000 301.748 C 123.690 301.748,122.745 301.814,123.900 301.895 M171.100 301.895 C 172.255 301.976,174.145 301.976,175.300 301.895 C 176.455 301.814,175.510 301.748,173.200 301.748 C 170.890 301.748,169.945 301.814,171.100 301.895 M140.900 302.300 C 145.245 302.364,152.355 302.364,156.700 302.300 C 161.045 302.235,157.490 302.182,148.800 302.182 C 140.110 302.182,136.555 302.235,140.900 302.300 M118.581 308.100 L 117.000 309.800 118.700 308.219 C 120.281 306.748,120.584 306.400,120.281 306.400 C 120.216 306.400,119.451 307.165,118.581 308.100 M246.900 316.276 C 247.285 316.376,247.915 316.376,248.300 316.276 C 248.685 316.175,248.370 316.093,247.600 316.093 C 246.830 316.093,246.515 316.175,246.900 316.276 M233.400 320.000 C 232.896 320.217,232.822 320.344,233.200 320.344 C 233.530 320.344,234.160 320.189,234.600 320.000 C 235.104 319.783,235.178 319.656,234.800 319.656 C 234.470 319.656,233.840 319.811,233.400 320.000 M325.178 321.500 L 323.800 323.000 325.300 321.622 C 326.696 320.338,326.984 320.000,326.678 320.000 C 326.612 320.000,325.937 320.675,325.178 321.500 M350.589 326.100 L 347.800 329.000 350.700 326.211 C 353.394 323.620,353.783 323.200,353.489 323.200 C 353.428 323.200,352.123 324.505,350.589 326.100 M85.693 326.000 C 85.693 326.770,85.775 327.085,85.876 326.700 C 85.976 326.315,85.976 325.685,85.876 325.300 C 85.775 324.915,85.693 325.230,85.693 326.000 M201.100 325.082 C 201.595 325.178,202.405 325.178,202.900 325.082 C 203.395 324.987,202.990 324.909,202.000 324.909 C 201.010 324.909,200.605 324.987,201.100 325.082 M320.185 326.900 L 318.200 329.000 320.300 327.015 C 322.251 325.171,322.583 324.800,322.285 324.800 C 322.222 324.800,321.277 325.745,320.185 326.900 M150.500 325.476 C 150.885 325.576,151.515 325.576,151.900 325.476 C 152.285 325.375,151.970 325.293,151.200 325.293 C 150.430 325.293,150.115 325.375,150.500 325.476 M197.505 325.483 C 198.002 325.579,198.722 325.575,199.105 325.475 C 199.487 325.375,199.080 325.296,198.200 325.301 C 197.320 325.305,197.007 325.387,197.505 325.483 M170.917 326.697 C 172.411 326.774,174.751 326.774,176.117 326.696 C 177.482 326.618,176.260 326.555,173.400 326.555 C 170.540 326.556,169.422 326.620,170.917 326.697 M315.200 331.400 C 314.228 332.390,313.523 333.200,313.633 333.200 C 313.743 333.200,314.628 332.390,315.600 331.400 C 316.572 330.410,317.277 329.600,317.167 329.600 C 317.057 329.600,316.172 330.410,315.200 331.400 M89.183 333.300 C 90.164 334.345,91.019 335.200,91.083 335.200 C 91.384 335.200,91.066 334.841,89.300 333.183 L 87.400 331.400 89.183 333.300 M97.600 338.979 C 97.600 339.089,98.140 339.459,98.800 339.800 C 99.460 340.141,100.000 340.331,100.000 340.221 C 100.000 340.111,99.460 339.741,98.800 339.400 C 98.140 339.059,97.600 338.869,97.600 338.979 M314.200 347.200 C 313.696 347.417,313.622 347.544,314.000 347.544 C 314.330 347.544,314.960 347.389,315.400 347.200 C 315.904 346.983,315.978 346.856,315.600 346.856 C 315.270 346.856,314.640 347.011,314.200 347.200 M206.705 349.483 C 207.202 349.579,207.922 349.575,208.305 349.475 C 208.687 349.375,208.280 349.296,207.400 349.301 C 206.520 349.305,206.207 349.387,206.705 349.483 M141.300 349.876 C 141.685 349.976,142.315 349.976,142.700 349.876 C 143.085 349.775,142.770 349.693,142.000 349.693 C 141.230 349.693,140.915 349.775,141.300 349.876 M202.700 349.882 C 203.195 349.978,204.005 349.978,204.500 349.882 C 204.995 349.787,204.590 349.709,203.600 349.709 C 202.610 349.709,202.205 349.787,202.700 349.882 M145.300 350.276 C 145.685 350.376,146.315 350.376,146.700 350.276 C 147.085 350.175,146.770 350.093,146.000 350.093 C 145.230 350.093,144.915 350.175,145.300 350.276 M197.900 350.282 C 198.395 350.378,199.205 350.378,199.700 350.282 C 200.195 350.187,199.790 350.109,198.800 350.109 C 197.810 350.109,197.405 350.187,197.900 350.282 M150.900 350.676 C 151.285 350.776,151.915 350.776,152.300 350.676 C 152.685 350.575,152.370 350.493,151.600 350.493 C 150.830 350.493,150.515 350.575,150.900 350.676 M191.900 350.682 C 192.395 350.778,193.205 350.778,193.700 350.682 C 194.195 350.587,193.790 350.509,192.800 350.509 C 191.810 350.509,191.405 350.587,191.900 350.682 M159.300 351.087 C 159.905 351.178,160.895 351.178,161.500 351.087 C 162.105 350.995,161.610 350.920,160.400 350.920 C 159.190 350.920,158.695 350.995,159.300 351.087 M182.307 351.090 C 183.026 351.179,184.106 351.177,184.707 351.086 C 185.308 350.995,184.720 350.922,183.400 350.924 C 182.080 350.926,181.588 351.001,182.307 351.090 M134.000 352.684 C 134.330 352.805,134.960 353.196,135.400 353.552 C 136.193 354.194,136.194 354.192,135.438 353.300 C 135.019 352.805,134.389 352.414,134.038 352.432 C 133.496 352.458,133.491 352.497,134.000 352.684 M134.275 355.522 C 133.191 356.653,132.893 357.763,133.563 358.177 C 133.762 358.300,133.828 358.030,133.710 357.577 C 133.564 357.020,133.860 356.373,134.622 355.577 C 135.242 354.930,135.660 354.400,135.550 354.400 C 135.440 354.400,134.866 354.905,134.275 355.522 M115.500 357.829 C 113.949 358.670,114.125 358.961,115.700 358.159 C 117.208 357.393,117.475 357.194,116.967 357.216 C 116.765 357.225,116.105 357.501,115.500 357.829 M135.400 360.400 C 136.259 361.280,137.052 362.000,137.162 362.000 C 137.272 362.000,136.659 361.280,135.800 360.400 C 134.941 359.520,134.148 358.800,134.038 358.800 C 133.928 358.800,134.541 359.520,135.400 360.400 M255.600 367.325 C 255.600 367.394,256.185 367.979,256.900 368.625 L 258.200 369.800 257.025 368.500 C 255.930 367.288,255.600 367.016,255.600 367.325 M183.700 369.076 C 184.085 369.176,184.715 369.176,185.100 369.076 C 185.485 368.975,185.170 368.893,184.400 368.893 C 183.630 368.893,183.315 368.975,183.700 369.076 M166.512 369.495 C 167.564 369.577,169.184 369.576,170.112 369.492 C 171.040 369.408,170.180 369.341,168.200 369.342 C 166.220 369.343,165.460 369.412,166.512 369.495 M173.900 369.493 C 174.835 369.577,176.365 369.577,177.300 369.493 C 178.235 369.409,177.470 369.340,175.600 369.340 C 173.730 369.340,172.965 369.409,173.900 369.493 M103.279 376.438 C 103.209 379.149,103.297 379.558,104.100 380.238 C 104.995 380.996,104.996 380.995,104.319 380.190 C 103.848 379.629,103.596 378.459,103.499 376.390 L 103.359 373.400 103.279 376.438 M64.691 378.689 C 65.401 378.777,66.661 378.779,67.491 378.692 C 68.321 378.605,67.740 378.533,66.200 378.531 C 64.660 378.529,63.981 378.600,64.691 378.689 M31.100 385.429 C 29.549 386.270,29.725 386.561,31.300 385.759 C 32.808 384.993,33.075 384.794,32.567 384.816 C 32.365 384.825,31.705 385.101,31.100 385.429 M98.901 387.032 C 99.286 387.490,99.481 387.985,99.334 388.132 C 99.187 388.280,99.277 388.400,99.533 388.400 C 100.265 388.400,100.083 387.794,99.100 386.962 C 98.201 386.201,98.201 386.201,98.901 387.032 M344.783 389.300 C 345.764 390.345,346.619 391.200,346.683 391.200 C 346.984 391.200,346.666 390.841,344.900 389.183 L 343.000 387.400 344.783 389.300 M86.500 389.487 C 87.105 389.578,88.095 389.578,88.700 389.487 C 89.305 389.395,88.810 389.320,87.600 389.320 C 86.390 389.320,85.895 389.395,86.500 389.487 M81.305 389.887 C 81.914 389.979,82.814 389.977,83.305 389.882 C 83.797 389.787,83.300 389.711,82.200 389.714 C 81.100 389.717,80.697 389.795,81.305 389.887 M20.786 392.700 L 18.600 395.000 20.900 392.814 C 23.037 390.782,23.383 390.400,23.086 390.400 C 23.024 390.400,21.989 391.435,20.786 392.700 M331.450 392.850 C 331.309 393.553,331.269 394.202,331.359 394.292 C 331.450 394.383,331.648 393.891,331.800 393.200 C 331.952 392.509,331.993 391.859,331.891 391.758 C 331.789 391.656,331.591 392.147,331.450 392.850 M347.628 393.000 C 347.628 393.220,347.886 393.850,348.200 394.400 C 348.514 394.950,348.772 395.220,348.772 395.000 C 348.772 394.780,348.514 394.150,348.200 393.600 C 347.886 393.050,347.628 392.780,347.628 393.000 M156.905 397.087 C 157.514 397.179,158.414 397.177,158.905 397.082 C 159.397 396.987,158.900 396.911,157.800 396.914 C 156.700 396.917,156.297 396.995,156.905 397.087 M191.700 397.087 C 192.305 397.178,193.295 397.178,193.900 397.087 C 194.505 396.995,194.010 396.920,192.800 396.920 C 191.590 396.920,191.095 396.995,191.700 397.087 M162.300 397.493 C 163.235 397.577,164.765 397.577,165.700 397.493 C 166.635 397.409,165.870 397.340,164.000 397.340 C 162.130 397.340,161.365 397.409,162.300 397.493 M183.911 397.493 C 184.851 397.578,186.291 397.577,187.111 397.491 C 187.930 397.405,187.160 397.336,185.400 397.337 C 183.640 397.339,182.970 397.409,183.911 397.493 M173.715 397.896 C 174.988 397.976,176.968 397.975,178.115 397.894 C 179.262 397.814,178.220 397.749,175.800 397.750 C 173.380 397.751,172.442 397.816,173.715 397.896 M62.600 409.200 C 63.459 410.080,64.252 410.800,64.362 410.800 C 64.472 410.800,63.859 410.080,63.000 409.200 C 62.141 408.320,61.348 407.600,61.238 407.600 C 61.128 407.600,61.741 408.320,62.600 409.200 M77.200 417.933 C 77.530 418.136,78.250 418.424,78.800 418.571 C 79.495 418.757,79.617 418.725,79.200 418.467 C 78.870 418.264,78.150 417.976,77.600 417.829 C 76.905 417.643,76.783 417.675,77.200 417.933 M22.200 420.400 C 23.283 421.500,24.260 422.400,24.370 422.400 C 24.480 422.400,23.683 421.500,22.600 420.400 C 21.517 419.300,20.540 418.400,20.430 418.400 C 20.320 418.400,21.117 419.300,22.200 420.400 M382.400 424.155 C 382.400 424.240,382.930 424.387,383.579 424.482 C 384.227 424.577,384.667 424.508,384.555 424.328 C 384.357 424.007,382.400 423.850,382.400 424.155 M110.100 425.876 C 110.485 425.976,111.115 425.976,111.500 425.876 C 111.885 425.775,111.570 425.693,110.800 425.693 C 110.030 425.693,109.715 425.775,110.100 425.876 M259.700 425.876 C 260.085 425.976,260.715 425.976,261.100 425.876 C 261.485 425.775,261.170 425.693,260.400 425.693 C 259.630 425.693,259.315 425.775,259.700 425.876 M375.578 428.700 L 374.200 430.200 375.700 428.822 C 377.096 427.538,377.384 427.200,377.078 427.200 C 377.012 427.200,376.337 427.875,375.578 428.700 M241.505 427.883 C 242.002 427.979,242.722 427.975,243.105 427.875 C 243.487 427.775,243.080 427.696,242.200 427.701 C 241.320 427.705,241.007 427.787,241.505 427.883 M128.700 428.282 C 129.195 428.378,130.005 428.378,130.500 428.282 C 130.995 428.187,130.590 428.109,129.600 428.109 C 128.610 428.109,128.205 428.187,128.700 428.282 M237.905 428.283 C 238.402 428.379,239.122 428.375,239.505 428.275 C 239.887 428.175,239.480 428.096,238.600 428.101 C 237.720 428.105,237.407 428.187,237.905 428.283 M132.705 428.683 C 133.202 428.779,133.922 428.775,134.305 428.675 C 134.687 428.575,134.280 428.496,133.400 428.501 C 132.520 428.505,132.207 428.587,132.705 428.683 M142.900 429.476 C 143.285 429.576,143.915 429.576,144.300 429.476 C 144.685 429.375,144.370 429.293,143.600 429.293 C 142.830 429.293,142.515 429.375,142.900 429.476 M150.105 429.887 C 150.714 429.979,151.614 429.977,152.105 429.882 C 152.597 429.787,152.100 429.711,151.000 429.714 C 149.900 429.717,149.497 429.795,150.105 429.887 M213.300 429.887 C 213.905 429.978,214.895 429.978,215.500 429.887 C 216.105 429.795,215.610 429.720,214.400 429.720 C 213.190 429.720,212.695 429.795,213.300 429.887 M158.900 430.291 C 159.725 430.378,161.075 430.378,161.900 430.291 C 162.725 430.205,162.050 430.134,160.400 430.134 C 158.750 430.134,158.075 430.205,158.900 430.291 M203.100 430.293 C 204.035 430.377,205.565 430.377,206.500 430.293 C 207.435 430.209,206.670 430.140,204.800 430.140 C 202.930 430.140,202.165 430.209,203.100 430.293 M173.874 430.699 C 178.094 430.764,185.114 430.764,189.474 430.700 C 193.833 430.635,190.380 430.582,181.800 430.582 C 173.220 430.582,169.653 430.635,173.874 430.699 M309.000 435.014 C 308.000 435.496,307.966 435.551,308.800 435.348 C 309.933 435.071,311.207 434.421,310.600 434.430 C 310.380 434.433,309.660 434.696,309.000 435.014 M279.800 442.800 C 278.781 443.238,279.832 443.238,281.200 442.800 C 282.004 442.543,282.043 442.477,281.400 442.468 C 280.960 442.462,280.240 442.611,279.800 442.800 M353.100 443.029 C 351.605 443.840,351.696 444.178,353.200 443.400 C 353.860 443.059,354.400 442.694,354.400 442.590 C 354.400 442.332,354.357 442.347,353.100 443.029 M371.200 447.000 C 370.228 447.990,369.523 448.800,369.633 448.800 C 369.743 448.800,370.628 447.990,371.600 447.000 C 372.572 446.010,373.277 445.200,373.167 445.200 C 373.057 445.200,372.172 446.010,371.200 447.000 M98.900 447.476 C 99.285 447.576,99.915 447.576,100.300 447.476 C 100.685 447.375,100.370 447.293,99.600 447.293 C 98.830 447.293,98.515 447.375,98.900 447.476 M252.900 447.476 C 253.285 447.576,253.915 447.576,254.300 447.476 C 254.685 447.375,254.370 447.293,253.600 447.293 C 252.830 447.293,252.515 447.375,252.900 447.476 M367.381 450.900 L 365.800 452.600 367.500 451.019 C 369.081 449.548,369.384 449.200,369.081 449.200 C 369.016 449.200,368.251 449.965,367.381 450.900 M119.705 449.887 C 120.314 449.979,121.214 449.977,121.705 449.882 C 122.197 449.787,121.700 449.711,120.600 449.714 C 119.500 449.717,119.097 449.795,119.705 449.887 M228.105 449.887 C 228.714 449.979,229.614 449.977,230.105 449.882 C 230.597 449.787,230.100 449.711,229.000 449.714 C 227.900 449.717,227.497 449.795,228.105 449.887 M124.105 450.287 C 124.714 450.379,125.614 450.377,126.105 450.282 C 126.597 450.187,126.100 450.111,125.000 450.114 C 123.900 450.117,123.497 450.195,124.105 450.287 M223.305 450.287 C 223.914 450.379,224.814 450.377,225.305 450.282 C 225.797 450.187,225.300 450.111,224.200 450.114 C 223.100 450.117,222.697 450.195,223.305 450.287 M129.500 450.682 C 129.995 450.778,130.805 450.778,131.300 450.682 C 131.795 450.587,131.390 450.509,130.400 450.509 C 129.410 450.509,129.005 450.587,129.500 450.682 M217.500 450.682 C 217.995 450.778,218.805 450.778,219.300 450.682 C 219.795 450.587,219.390 450.509,218.400 450.509 C 217.410 450.509,217.005 450.587,217.500 450.682 M135.505 451.083 C 136.002 451.179,136.722 451.175,137.105 451.075 C 137.487 450.975,137.080 450.896,136.200 450.901 C 135.320 450.905,135.007 450.987,135.505 451.083 M211.105 451.083 C 211.602 451.179,212.322 451.175,212.705 451.075 C 213.087 450.975,212.680 450.896,211.800 450.901 C 210.920 450.905,210.607 450.987,211.105 451.083 M143.705 451.487 C 144.314 451.579,145.214 451.577,145.705 451.482 C 146.197 451.387,145.700 451.311,144.600 451.314 C 143.500 451.317,143.097 451.395,143.705 451.487 M201.500 451.482 C 201.995 451.578,202.805 451.578,203.300 451.482 C 203.795 451.387,203.390 451.309,202.400 451.309 C 201.410 451.309,201.005 451.387,201.500 451.482 M156.300 451.893 C 157.235 451.977,158.765 451.977,159.700 451.893 C 160.635 451.809,159.870 451.740,158.000 451.740 C 156.130 451.740,155.365 451.809,156.300 451.893 M187.300 451.891 C 188.125 451.978,189.475 451.978,190.300 451.891 C 191.125 451.805,190.450 451.734,188.800 451.734 C 187.150 451.734,186.475 451.805,187.300 451.891 M172.707 452.290 C 173.426 452.379,174.506 452.377,175.107 452.286 C 175.708 452.195,175.120 452.122,173.800 452.124 C 172.480 452.126,171.988 452.201,172.707 452.290 M303.800 460.800 C 303.296 461.017,303.222 461.144,303.600 461.144 C 303.930 461.144,304.560 460.989,305.000 460.800 C 305.504 460.583,305.578 460.456,305.200 460.456 C 304.870 460.456,304.240 460.611,303.800 460.800 M86.800 462.333 C 87.130 462.536,87.850 462.824,88.400 462.971 C 89.095 463.157,89.217 463.125,88.800 462.867 C 88.470 462.664,87.750 462.376,87.200 462.229 C 86.505 462.043,86.383 462.075,86.800 462.333 M345.600 464.800 C 344.830 465.222,344.344 465.574,344.520 465.583 C 344.944 465.605,347.200 464.432,347.200 464.190 C 347.200 463.928,347.177 463.937,345.600 464.800 M133.905 468.283 C 134.402 468.379,135.122 468.375,135.505 468.275 C 135.887 468.175,135.480 468.096,134.600 468.101 C 133.720 468.105,133.407 468.187,133.905 468.283 M137.505 468.683 C 138.002 468.779,138.722 468.775,139.105 468.675 C 139.487 468.575,139.080 468.496,138.200 468.501 C 137.320 468.505,137.007 468.587,137.505 468.683 M154.305 470.283 C 154.802 470.379,155.522 470.375,155.905 470.275 C 156.287 470.175,155.880 470.096,155.000 470.101 C 154.120 470.105,153.807 470.187,154.305 470.283 M245.700 470.276 C 246.085 470.376,246.715 470.376,247.100 470.276 C 247.485 470.175,247.170 470.093,246.400 470.093 C 245.630 470.093,245.315 470.175,245.700 470.276 M158.500 470.687 C 159.105 470.778,160.095 470.778,160.700 470.687 C 161.305 470.595,160.810 470.520,159.600 470.520 C 158.390 470.520,157.895 470.595,158.500 470.687 M240.905 470.687 C 241.514 470.779,242.414 470.777,242.905 470.682 C 243.397 470.587,242.900 470.511,241.800 470.514 C 240.700 470.517,240.297 470.595,240.905 470.687 M163.500 471.082 C 163.995 471.178,164.805 471.178,165.300 471.082 C 165.795 470.987,165.390 470.909,164.400 470.909 C 163.410 470.909,163.005 470.987,163.500 471.082 M235.507 471.090 C 236.226 471.179,237.306 471.177,237.907 471.086 C 238.508 470.995,237.920 470.922,236.600 470.924 C 235.280 470.926,234.788 471.001,235.507 471.090 M170.305 471.483 C 170.802 471.579,171.522 471.575,171.905 471.475 C 172.287 471.375,171.880 471.296,171.000 471.301 C 170.120 471.305,169.807 471.387,170.305 471.483 M230.305 471.483 C 230.802 471.579,231.522 471.575,231.905 471.475 C 232.287 471.375,231.880 471.296,231.000 471.301 C 230.120 471.305,229.807 471.387,230.305 471.483 M179.305 471.887 C 179.914 471.979,180.814 471.977,181.305 471.882 C 181.797 471.787,181.300 471.711,180.200 471.714 C 179.100 471.717,178.697 471.795,179.305 471.887 M221.300 471.887 C 221.905 471.978,222.895 471.978,223.500 471.887 C 224.105 471.795,223.610 471.720,222.400 471.720 C 221.190 471.720,220.695 471.795,221.300 471.887 M197.720 472.298 C 199.655 472.372,202.715 472.371,204.520 472.297 C 206.324 472.223,204.740 472.163,201.000 472.164 C 197.260 472.164,195.784 472.225,197.720 472.298 M313.400 475.200 C 312.896 475.417,312.822 475.544,313.200 475.544 C 313.530 475.544,314.160 475.389,314.600 475.200 C 315.104 474.983,315.178 474.856,314.800 474.856 C 314.470 474.856,313.840 475.011,313.400 475.200 M301.400 477.600 C 300.322 477.874,300.302 477.906,301.200 477.913 C 301.750 477.917,302.650 477.776,303.200 477.600 C 304.544 477.169,303.092 477.169,301.400 477.600 M174.900 482.676 C 175.285 482.776,175.915 482.776,176.300 482.676 C 176.685 482.575,176.370 482.493,175.600 482.493 C 174.830 482.493,174.515 482.575,174.900 482.676 M195.300 485.076 C 195.685 485.176,196.315 485.176,196.700 485.076 C 197.085 484.975,196.770 484.893,196.000 484.893 C 195.230 484.893,194.915 484.975,195.300 485.076 M200.700 485.498 C 202.515 485.572,205.485 485.572,207.300 485.498 C 209.115 485.423,207.630 485.363,204.000 485.363 C 200.370 485.363,198.885 485.423,200.700 485.498 M220.882 485.496 C 222.358 485.573,224.878 485.573,226.482 485.497 C 228.087 485.421,226.880 485.358,223.800 485.358 C 220.720 485.357,219.407 485.419,220.882 485.496 M240.100 485.497 C 241.585 485.574,244.015 485.574,245.500 485.497 C 246.985 485.420,245.770 485.357,242.800 485.357 C 239.830 485.357,238.615 485.420,240.100 485.497 M249.900 485.482 C 250.395 485.578,251.205 485.578,251.700 485.482 C 252.195 485.387,251.790 485.309,250.800 485.309 C 249.810 485.309,249.405 485.387,249.900 485.482 " stroke="none" fill="#939393" fill-rule="evenodd"></path><path id="path3" d="M244.093 50.400 C 244.093 51.170,244.175 51.485,244.276 51.100 C 244.376 50.715,244.376 50.085,244.276 49.700 C 244.175 49.315,244.093 49.630,244.093 50.400 M244.534 56.800 C 244.534 58.450,244.605 59.125,244.691 58.300 C 244.778 57.475,244.778 56.125,244.691 55.300 C 244.605 54.475,244.534 55.150,244.534 56.800 M244.101 63.000 C 244.105 63.880,244.187 64.193,244.283 63.695 C 244.379 63.198,244.375 62.478,244.275 62.095 C 244.175 61.713,244.096 62.120,244.101 63.000 M211.191 76.300 L 207.800 79.800 211.300 76.409 C 213.225 74.544,214.800 72.969,214.800 72.909 C 214.800 72.618,214.341 73.049,211.191 76.300 M202.386 128.300 L 200.200 130.600 202.500 128.414 C 203.765 127.211,204.800 126.176,204.800 126.114 C 204.800 125.817,204.418 126.163,202.386 128.300 M145.392 130.500 L 141.800 134.200 145.500 130.608 C 148.936 127.272,149.382 126.800,149.092 126.800 C 149.032 126.800,147.367 128.465,145.392 130.500 M216.400 132.600 C 215.428 133.590,214.723 134.400,214.833 134.400 C 214.943 134.400,215.828 133.590,216.800 132.600 C 217.772 131.610,218.477 130.800,218.367 130.800 C 218.257 130.800,217.372 131.610,216.400 132.600 M193.988 136.300 L 191.400 139.000 194.100 136.412 C 195.585 134.988,196.800 133.773,196.800 133.712 C 196.800 133.417,196.393 133.792,193.988 136.300 M244.985 145.300 L 243.000 147.400 245.100 145.415 C 247.051 143.571,247.383 143.200,247.085 143.200 C 247.022 143.200,246.077 144.145,244.985 145.300 M205.800 146.800 C 205.459 147.460,205.269 148.000,205.379 148.000 C 205.489 148.000,205.859 147.460,206.200 146.800 C 206.541 146.140,206.731 145.600,206.621 145.600 C 206.511 145.600,206.141 146.140,205.800 146.800 M180.185 150.100 L 178.200 152.200 180.300 150.215 C 181.455 149.123,182.400 148.178,182.400 148.115 C 182.400 147.817,182.029 148.149,180.185 150.100 M125.754 170.000 C 125.754 172.750,125.818 173.875,125.896 172.500 C 125.974 171.125,125.974 168.875,125.896 167.500 C 125.818 166.125,125.754 167.250,125.754 170.000 M160.909 186.800 C 160.909 187.790,160.987 188.195,161.082 187.700 C 161.178 187.205,161.178 186.395,161.082 185.900 C 160.987 185.405,160.909 185.810,160.909 186.800 M168.600 213.600 C 168.941 214.260,169.311 214.800,169.421 214.800 C 169.531 214.800,169.341 214.260,169.000 213.600 C 168.659 212.940,168.289 212.400,168.179 212.400 C 168.069 212.400,168.259 212.940,168.600 213.600 M148.000 220.125 C 148.000 220.194,148.585 220.779,149.300 221.425 L 150.600 222.600 149.425 221.300 C 148.330 220.088,148.000 219.816,148.000 220.125 M256.093 223.600 C 256.093 224.370,256.175 224.685,256.276 224.300 C 256.376 223.915,256.376 223.285,256.276 222.900 C 256.175 222.515,256.093 222.830,256.093 223.600 M153.800 226.400 C 154.659 227.280,155.452 228.000,155.562 228.000 C 155.672 228.000,155.059 227.280,154.200 226.400 C 153.341 225.520,152.548 224.800,152.438 224.800 C 152.328 224.800,152.941 225.520,153.800 226.400 M256.093 230.000 C 256.093 230.770,256.175 231.085,256.276 230.700 C 256.376 230.315,256.376 229.685,256.276 229.300 C 256.175 228.915,256.093 229.230,256.093 230.000 M159.200 231.325 C 159.200 231.394,159.785 231.979,160.500 232.625 L 161.800 233.800 160.625 232.500 C 159.530 231.288,159.200 231.016,159.200 231.325 M133.900 251.882 C 134.395 251.978,135.205 251.978,135.700 251.882 C 136.195 251.787,135.790 251.709,134.800 251.709 C 133.810 251.709,133.405 251.787,133.900 251.882 M106.705 254.283 C 107.202 254.379,107.922 254.375,108.305 254.275 C 108.687 254.175,108.280 254.096,107.400 254.101 C 106.520 254.105,106.207 254.187,106.705 254.283 M102.900 254.676 C 103.285 254.776,103.915 254.776,104.300 254.676 C 104.685 254.575,104.370 254.493,103.600 254.493 C 102.830 254.493,102.515 254.575,102.900 254.676 M354.800 260.525 C 354.800 260.594,355.385 261.179,356.100 261.825 L 357.400 263.000 356.225 261.700 C 355.130 260.488,354.800 260.216,354.800 260.525 M301.600 262.200 L 300.661 263.200 301.630 263.168 C 302.164 263.151,302.364 263.042,302.076 262.927 C 301.668 262.764,301.704 262.548,302.238 261.959 C 303.264 260.824,302.687 261.043,301.600 262.200 M304.305 262.683 C 304.802 262.779,305.522 262.775,305.905 262.675 C 306.287 262.575,305.880 262.496,305.000 262.501 C 304.120 262.505,303.807 262.587,304.305 262.683 M312.705 262.683 C 313.202 262.779,313.922 262.775,314.305 262.675 C 314.687 262.575,314.280 262.496,313.400 262.501 C 312.520 262.505,312.207 262.587,312.705 262.683 M104.378 267.900 L 103.000 269.400 104.500 268.022 C 105.896 266.738,106.184 266.400,105.878 266.400 C 105.812 266.400,105.137 267.075,104.378 267.900 M331.200 269.325 C 331.200 269.394,331.785 269.979,332.500 270.625 L 333.800 271.800 332.625 270.500 C 331.530 269.288,331.200 269.016,331.200 269.325 M287.600 273.400 C 286.628 274.390,285.923 275.200,286.033 275.200 C 286.143 275.200,287.028 274.390,288.000 273.400 C 288.972 272.410,289.677 271.600,289.567 271.600 C 289.457 271.600,288.572 272.410,287.600 273.400 M244.900 274.276 C 245.285 274.376,245.915 274.376,246.300 274.276 C 246.685 274.175,246.370 274.093,245.600 274.093 C 244.830 274.093,244.515 274.175,244.900 274.276 M240.705 274.683 C 241.202 274.779,241.922 274.775,242.305 274.675 C 242.687 274.575,242.280 274.496,241.400 274.501 C 240.520 274.505,240.207 274.587,240.705 274.683 M214.105 276.687 C 214.714 276.779,215.614 276.777,216.105 276.682 C 216.597 276.587,216.100 276.511,215.000 276.514 C 213.900 276.517,213.497 276.595,214.105 276.687 M122.705 277.083 C 123.202 277.179,123.922 277.175,124.305 277.075 C 124.687 276.975,124.280 276.896,123.400 276.901 C 122.520 276.905,122.207 276.987,122.705 277.083 M208.307 277.090 C 209.026 277.179,210.106 277.177,210.707 277.086 C 211.308 276.995,210.720 276.922,209.400 276.924 C 208.080 276.926,207.588 277.001,208.307 277.090 M128.707 277.490 C 129.426 277.579,130.506 277.577,131.107 277.486 C 131.708 277.395,131.120 277.322,129.800 277.324 C 128.480 277.326,127.988 277.401,128.707 277.490 M200.307 277.490 C 201.026 277.579,202.106 277.577,202.707 277.486 C 203.308 277.395,202.720 277.322,201.400 277.324 C 200.080 277.326,199.588 277.401,200.307 277.490 M138.500 277.887 C 139.105 277.978,140.095 277.978,140.700 277.887 C 141.305 277.795,140.810 277.720,139.600 277.720 C 138.390 277.720,137.895 277.795,138.500 277.887 M189.900 277.889 C 190.615 277.978,191.785 277.978,192.500 277.889 C 193.215 277.801,192.630 277.728,191.200 277.728 C 189.770 277.728,189.185 277.801,189.900 277.889 M159.125 278.299 C 162.493 278.366,167.893 278.366,171.125 278.299 C 174.356 278.232,171.600 278.177,165.000 278.177 C 158.400 278.177,155.756 278.232,159.125 278.299 M366.493 283.200 C 366.493 283.970,366.575 284.285,366.676 283.900 C 366.776 283.515,366.776 282.885,366.676 282.500 C 366.575 282.115,366.493 282.430,366.493 283.200 M339.734 289.600 C 339.734 291.250,339.805 291.925,339.891 291.100 C 339.978 290.275,339.978 288.925,339.891 288.100 C 339.805 287.275,339.734 287.950,339.734 289.600 M366.493 293.600 C 366.493 294.370,366.575 294.685,366.676 294.300 C 366.776 293.915,366.776 293.285,366.676 292.900 C 366.575 292.515,366.493 292.830,366.493 293.600 M199.700 299.876 C 200.085 299.976,200.715 299.976,201.100 299.876 C 201.485 299.775,201.170 299.693,200.400 299.693 C 199.630 299.693,199.315 299.775,199.700 299.876 M104.305 300.283 C 104.802 300.379,105.522 300.375,105.905 300.275 C 106.287 300.175,105.880 300.096,105.000 300.101 C 104.120 300.105,103.807 300.187,104.305 300.283 M195.305 300.287 C 195.914 300.379,196.814 300.377,197.305 300.282 C 197.797 300.187,197.300 300.111,196.200 300.114 C 195.100 300.117,194.697 300.195,195.305 300.287 M122.100 301.476 C 122.485 301.576,123.115 301.576,123.500 301.476 C 123.885 301.375,123.570 301.293,122.800 301.293 C 122.030 301.293,121.715 301.375,122.100 301.476 M175.505 301.483 C 176.002 301.579,176.722 301.575,177.105 301.475 C 177.487 301.375,177.080 301.296,176.200 301.301 C 175.320 301.305,175.007 301.387,175.505 301.483 M133.511 301.893 C 134.451 301.978,135.891 301.977,136.711 301.891 C 137.530 301.805,136.760 301.736,135.000 301.737 C 133.240 301.739,132.570 301.809,133.511 301.893 M162.500 301.891 C 163.325 301.978,164.675 301.978,165.500 301.891 C 166.325 301.805,165.650 301.734,164.000 301.734 C 162.350 301.734,161.675 301.805,162.500 301.891 M118.778 307.500 L 117.400 309.000 118.900 307.622 C 120.296 306.338,120.584 306.000,120.278 306.000 C 120.212 306.000,119.537 306.675,118.778 307.500 M351.781 324.500 L 350.200 326.200 351.900 324.619 C 353.481 323.148,353.784 322.800,353.481 322.800 C 353.416 322.800,352.651 323.565,351.781 324.500 M86.120 326.000 C 86.120 327.210,86.195 327.705,86.287 327.100 C 86.378 326.495,86.378 325.505,86.287 324.900 C 86.195 324.295,86.120 324.790,86.120 326.000 M207.700 324.676 C 208.085 324.776,208.715 324.776,209.100 324.676 C 209.485 324.575,209.170 324.493,208.400 324.493 C 207.630 324.493,207.315 324.575,207.700 324.676 M163.500 326.682 C 163.995 326.778,164.805 326.778,165.300 326.682 C 165.795 326.587,165.390 326.509,164.400 326.509 C 163.410 326.509,163.005 326.587,163.500 326.682 M180.500 326.687 C 181.105 326.778,182.095 326.778,182.700 326.687 C 183.305 326.595,182.810 326.520,181.600 326.520 C 180.390 326.520,179.895 326.595,180.500 326.687 M348.175 328.100 L 347.000 329.400 348.300 328.225 C 349.015 327.579,349.600 326.994,349.600 326.925 C 349.600 326.616,349.270 326.888,348.175 328.100 M316.185 330.900 L 314.200 333.000 316.300 331.015 C 318.251 329.171,318.583 328.800,318.285 328.800 C 318.222 328.800,317.277 329.745,316.185 330.900 M293.270 350.126 C 292.295 351.163,292.176 351.600,292.867 351.600 C 293.123 351.600,293.212 351.478,293.063 351.330 C 292.914 351.181,293.186 350.641,293.666 350.130 C 294.146 349.618,294.449 349.200,294.339 349.200 C 294.229 349.200,293.748 349.617,293.270 350.126 M144.500 349.876 C 144.885 349.976,145.515 349.976,145.900 349.876 C 146.285 349.775,145.970 349.693,145.200 349.693 C 144.430 349.693,144.115 349.775,144.500 349.876 M199.105 349.883 C 199.602 349.979,200.322 349.975,200.705 349.875 C 201.087 349.775,200.680 349.696,199.800 349.701 C 198.920 349.705,198.607 349.787,199.105 349.883 M148.900 350.287 C 149.505 350.378,150.495 350.378,151.100 350.287 C 151.705 350.195,151.210 350.120,150.000 350.120 C 148.790 350.120,148.295 350.195,148.900 350.287 M193.300 350.287 C 193.905 350.378,194.895 350.378,195.500 350.287 C 196.105 350.195,195.610 350.120,194.400 350.120 C 193.190 350.120,192.695 350.195,193.300 350.287 M154.500 350.687 C 155.105 350.778,156.095 350.778,156.700 350.687 C 157.305 350.595,156.810 350.520,155.600 350.520 C 154.390 350.520,153.895 350.595,154.500 350.687 M187.107 350.690 C 187.826 350.779,188.906 350.777,189.507 350.686 C 190.108 350.595,189.520 350.522,188.200 350.524 C 186.880 350.526,186.388 350.601,187.107 350.690 M167.921 351.099 C 170.188 351.170,173.788 351.170,175.921 351.098 C 178.055 351.026,176.200 350.968,171.800 350.968 C 167.400 350.968,165.655 351.027,167.921 351.099 M135.400 360.800 C 136.259 361.680,137.052 362.400,137.162 362.400 C 137.272 362.400,136.659 361.680,135.800 360.800 C 134.941 359.920,134.148 359.200,134.038 359.200 C 133.928 359.200,134.541 359.920,135.400 360.800 M108.575 362.900 L 107.400 364.200 108.700 363.025 C 109.912 361.930,110.184 361.600,109.875 361.600 C 109.806 361.600,109.221 362.185,108.575 362.900 M161.500 369.482 C 161.995 369.578,162.805 369.578,163.300 369.482 C 163.795 369.387,163.390 369.309,162.400 369.309 C 161.410 369.309,161.005 369.387,161.500 369.482 M180.505 369.487 C 181.114 369.579,182.014 369.577,182.505 369.482 C 182.997 369.387,182.500 369.311,181.400 369.314 C 180.300 369.317,179.897 369.395,180.505 369.487 M169.113 369.895 C 170.276 369.976,172.076 369.976,173.113 369.893 C 174.151 369.811,173.200 369.745,171.000 369.746 C 168.800 369.747,167.951 369.814,169.113 369.895 M103.701 374.600 C 103.705 375.480,103.787 375.793,103.883 375.295 C 103.979 374.798,103.975 374.078,103.875 373.695 C 103.775 373.313,103.696 373.720,103.701 374.600 M103.654 378.438 C 103.621 379.071,103.951 379.773,104.500 380.238 C 105.393 380.994,105.395 380.994,104.736 380.200 C 104.372 379.760,103.991 378.950,103.891 378.400 L 103.709 377.400 103.654 378.438 M21.578 392.300 L 20.200 393.800 21.700 392.422 C 22.525 391.663,23.200 390.988,23.200 390.922 C 23.200 390.616,22.862 390.904,21.578 392.300 M160.900 397.076 C 161.285 397.176,161.915 397.176,162.300 397.076 C 162.685 396.975,162.370 396.893,161.600 396.893 C 160.830 396.893,160.515 396.975,160.900 397.076 M187.700 397.076 C 188.085 397.176,188.715 397.176,189.100 397.076 C 189.485 396.975,189.170 396.893,188.400 396.893 C 187.630 396.893,187.315 396.975,187.700 397.076 M172.118 397.498 C 173.833 397.573,176.533 397.572,178.118 397.497 C 179.703 397.421,178.300 397.359,175.000 397.360 C 171.700 397.361,170.403 397.422,172.118 397.498 M349.309 400.800 C 349.309 401.790,349.387 402.195,349.482 401.700 C 349.578 401.205,349.578 400.395,349.482 399.900 C 349.387 399.405,349.309 399.810,349.309 400.800 M325.200 403.800 C 324.228 404.790,323.523 405.600,323.633 405.600 C 323.743 405.600,324.628 404.790,325.600 403.800 C 326.572 402.810,327.277 402.000,327.167 402.000 C 327.057 402.000,326.172 402.810,325.200 403.800 M312.700 412.229 C 311.205 413.040,311.296 413.378,312.800 412.600 C 313.460 412.259,314.000 411.894,314.000 411.790 C 314.000 411.532,313.957 411.547,312.700 412.229 M341.775 416.900 L 340.600 418.200 341.900 417.025 C 342.615 416.379,343.200 415.794,343.200 415.725 C 343.200 415.416,342.870 415.688,341.775 416.900 M22.400 420.200 C 23.595 421.410,24.663 422.400,24.773 422.400 C 24.883 422.400,23.995 421.410,22.800 420.200 C 21.605 418.990,20.537 418.000,20.427 418.000 C 20.317 418.000,21.205 418.990,22.400 420.200 M376.378 428.300 L 375.000 429.800 376.500 428.422 C 377.896 427.138,378.184 426.800,377.878 426.800 C 377.812 426.800,377.137 427.475,376.378 428.300 M248.705 427.483 C 249.202 427.579,249.922 427.575,250.305 427.475 C 250.687 427.375,250.280 427.296,249.400 427.301 C 248.520 427.305,248.207 427.387,248.705 427.483 M244.900 427.876 C 245.285 427.976,245.915 427.976,246.300 427.876 C 246.685 427.775,246.370 427.693,245.600 427.693 C 244.830 427.693,244.515 427.775,244.900 427.876 M145.107 429.890 C 145.826 429.979,146.906 429.977,147.507 429.886 C 148.108 429.795,147.520 429.722,146.200 429.724 C 144.880 429.726,144.388 429.801,145.107 429.890 M218.500 429.887 C 219.105 429.978,220.095 429.978,220.700 429.887 C 221.305 429.795,220.810 429.720,219.600 429.720 C 218.390 429.720,217.895 429.795,218.500 429.887 M151.900 430.289 C 152.615 430.378,153.785 430.378,154.500 430.289 C 155.215 430.201,154.630 430.128,153.200 430.128 C 151.770 430.128,151.185 430.201,151.900 430.289 M210.500 430.291 C 211.325 430.378,212.675 430.378,213.500 430.291 C 214.325 430.205,213.650 430.134,212.000 430.134 C 210.350 430.134,209.675 430.205,210.500 430.291 M319.600 430.600 C 319.050 430.914,318.780 431.172,319.000 431.172 C 319.220 431.172,319.850 430.914,320.400 430.600 C 320.950 430.286,321.220 430.028,321.000 430.028 C 320.780 430.028,320.150 430.286,319.600 430.600 M160.691 430.689 C 161.401 430.777,162.661 430.779,163.491 430.692 C 164.321 430.605,163.740 430.533,162.200 430.531 C 160.660 430.529,159.981 430.600,160.691 430.689 M201.100 430.693 C 202.035 430.777,203.565 430.777,204.500 430.693 C 205.435 430.609,204.670 430.540,202.800 430.540 C 200.930 430.540,200.165 430.609,201.100 430.693 M179.705 431.087 C 180.314 431.179,181.214 431.177,181.705 431.082 C 182.197 430.987,181.700 430.911,180.600 430.914 C 179.500 430.917,179.097 430.995,179.705 431.087 M355.100 442.229 C 353.605 443.040,353.696 443.378,355.200 442.600 C 355.860 442.259,356.400 441.894,356.400 441.790 C 356.400 441.532,356.357 441.547,355.100 442.229 M371.375 446.500 L 370.200 447.800 371.500 446.625 C 372.215 445.979,372.800 445.394,372.800 445.325 C 372.800 445.016,372.470 445.288,371.375 446.500 M246.900 447.876 C 247.285 447.976,247.915 447.976,248.300 447.876 C 248.685 447.775,248.370 447.693,247.600 447.693 C 246.830 447.693,246.515 447.775,246.900 447.876 M107.300 448.276 C 107.685 448.376,108.315 448.376,108.700 448.276 C 109.085 448.175,108.770 448.093,108.000 448.093 C 107.230 448.093,106.915 448.175,107.300 448.276 M242.900 448.276 C 243.285 448.376,243.915 448.376,244.300 448.276 C 244.685 448.175,244.370 448.093,243.600 448.093 C 242.830 448.093,242.515 448.175,242.900 448.276 M366.975 450.900 L 365.800 452.200 367.100 451.025 C 367.815 450.379,368.400 449.794,368.400 449.725 C 368.400 449.416,368.070 449.688,366.975 450.900 M128.305 450.283 C 128.802 450.379,129.522 450.375,129.905 450.275 C 130.287 450.175,129.880 450.096,129.000 450.101 C 128.120 450.105,127.807 450.187,128.305 450.283 M218.700 450.282 C 219.195 450.378,220.005 450.378,220.500 450.282 C 220.995 450.187,220.590 450.109,219.600 450.109 C 218.610 450.109,218.205 450.187,218.700 450.282 M133.700 450.687 C 134.305 450.778,135.295 450.778,135.900 450.687 C 136.505 450.595,136.010 450.520,134.800 450.520 C 133.590 450.520,133.095 450.595,133.700 450.687 M212.307 450.690 C 213.026 450.779,214.106 450.777,214.707 450.686 C 215.308 450.595,214.720 450.522,213.400 450.524 C 212.080 450.526,211.588 450.601,212.307 450.690 M139.507 451.090 C 140.226 451.179,141.306 451.177,141.907 451.086 C 142.508 450.995,141.920 450.922,140.600 450.924 C 139.280 450.926,138.788 451.001,139.507 451.090 M205.500 451.089 C 206.215 451.178,207.385 451.178,208.100 451.089 C 208.815 451.001,208.230 450.928,206.800 450.928 C 205.370 450.928,204.785 451.001,205.500 451.089 M148.505 451.487 C 149.114 451.579,150.014 451.577,150.505 451.482 C 150.997 451.387,150.500 451.311,149.400 451.314 C 148.300 451.317,147.897 451.395,148.505 451.487 M197.905 451.483 C 198.402 451.579,199.122 451.575,199.505 451.475 C 199.887 451.375,199.480 451.296,198.600 451.301 C 197.720 451.305,197.407 451.387,197.905 451.483 M168.700 451.899 C 171.615 451.967,176.385 451.967,179.300 451.899 C 182.215 451.831,179.830 451.775,174.000 451.775 C 168.170 451.775,165.785 451.831,168.700 451.899 M80.978 459.691 C 81.434 459.947,81.813 459.947,82.069 459.691 C 82.324 459.436,82.080 459.300,81.369 459.300 C 80.448 459.300,80.387 459.361,80.978 459.691 M348.700 463.029 C 347.205 463.840,347.296 464.178,348.800 463.400 C 349.460 463.059,350.000 462.694,350.000 462.590 C 350.000 462.332,349.957 462.347,348.700 463.029 M146.500 469.876 C 146.885 469.976,147.515 469.976,147.900 469.876 C 148.285 469.775,147.970 469.693,147.200 469.693 C 146.430 469.693,146.115 469.775,146.500 469.876 M252.500 469.876 C 252.885 469.976,253.515 469.976,253.900 469.876 C 254.285 469.775,253.970 469.693,253.200 469.693 C 252.430 469.693,252.115 469.775,252.500 469.876 M150.900 470.276 C 151.285 470.376,151.915 470.376,152.300 470.276 C 152.685 470.175,152.370 470.093,151.600 470.093 C 150.830 470.093,150.515 470.175,150.900 470.276 M248.705 470.283 C 249.202 470.379,249.922 470.375,250.305 470.275 C 250.687 470.175,250.280 470.096,249.400 470.101 C 248.520 470.105,248.207 470.187,248.705 470.283 M154.705 470.683 C 155.202 470.779,155.922 470.775,156.305 470.675 C 156.687 470.575,156.280 470.496,155.400 470.501 C 154.520 470.505,154.207 470.587,154.705 470.683 M244.900 470.676 C 245.285 470.776,245.915 470.776,246.300 470.676 C 246.685 470.575,246.370 470.493,245.600 470.493 C 244.830 470.493,244.515 470.575,244.900 470.676 M166.900 471.476 C 167.285 471.576,167.915 471.576,168.300 471.476 C 168.685 471.375,168.370 471.293,167.600 471.293 C 166.830 471.293,166.515 471.375,166.900 471.476 M233.700 471.476 C 234.085 471.576,234.715 471.576,235.100 471.476 C 235.485 471.375,235.170 471.293,234.400 471.293 C 233.630 471.293,233.315 471.375,233.700 471.476 M174.905 471.887 C 175.514 471.979,176.414 471.977,176.905 471.882 C 177.397 471.787,176.900 471.711,175.800 471.714 C 174.700 471.717,174.297 471.795,174.905 471.887 M186.700 472.293 C 187.635 472.377,189.165 472.377,190.100 472.293 C 191.035 472.209,190.270 472.140,188.400 472.140 C 186.530 472.140,185.765 472.209,186.700 472.293 M212.300 472.293 C 213.235 472.377,214.765 472.377,215.700 472.293 C 216.635 472.209,215.870 472.140,214.000 472.140 C 212.130 472.140,211.365 472.209,212.300 472.293 " stroke="none" fill="#6c6c6c" fill-rule="evenodd"></path><path id="path4" d="M189.781 140.500 L 188.200 142.200 189.900 140.619 C 191.481 139.148,191.784 138.800,191.481 138.800 C 191.416 138.800,190.651 139.565,189.781 140.500 M183.375 146.900 L 182.200 148.200 183.500 147.025 C 184.712 145.930,184.984 145.600,184.675 145.600 C 184.606 145.600,184.021 146.185,183.375 146.900 M156.800 229.400 C 157.546 230.170,158.247 230.800,158.357 230.800 C 158.467 230.800,157.946 230.170,157.200 229.400 C 156.454 228.630,155.753 228.000,155.643 228.000 C 155.533 228.000,156.054 228.630,156.800 229.400 M138.705 251.483 C 139.202 251.579,139.922 251.575,140.305 251.475 C 140.687 251.375,140.280 251.296,139.400 251.301 C 138.520 251.305,138.207 251.387,138.705 251.483 M329.500 252.282 C 329.995 252.378,330.805 252.378,331.300 252.282 C 331.795 252.187,331.390 252.109,330.400 252.109 C 329.410 252.109,329.005 252.187,329.500 252.282 M366.924 288.200 C 366.926 289.520,367.001 290.012,367.090 289.293 C 367.179 288.574,367.177 287.494,367.086 286.893 C 366.995 286.292,366.922 286.880,366.924 288.200 M167.300 301.876 C 167.685 301.976,168.315 301.976,168.700 301.876 C 169.085 301.775,168.770 301.693,168.000 301.693 C 167.230 301.693,166.915 301.775,167.300 301.876 M166.500 326.676 C 166.885 326.776,167.515 326.776,167.900 326.676 C 168.285 326.575,167.970 326.493,167.200 326.493 C 166.430 326.493,166.115 326.575,166.500 326.676 M197.700 430.676 C 198.085 430.776,198.715 430.776,199.100 430.676 C 199.485 430.575,199.170 430.493,198.400 430.493 C 197.630 430.493,197.315 430.575,197.700 430.676 M161.700 451.876 C 162.085 451.976,162.715 451.976,163.100 451.876 C 163.485 451.775,163.170 451.693,162.400 451.693 C 161.630 451.693,161.315 451.775,161.700 451.876 M192.305 472.283 C 192.802 472.379,193.522 472.375,193.905 472.275 C 194.287 472.175,193.880 472.096,193.000 472.101 C 192.120 472.105,191.807 472.187,192.305 472.283 M208.300 472.282 C 208.795 472.378,209.605 472.378,210.100 472.282 C 210.595 472.187,210.190 472.109,209.200 472.109 C 208.210 472.109,207.805 472.187,208.300 472.282 M212.300 485.495 C 213.455 485.576,215.345 485.576,216.500 485.495 C 217.655 485.414,216.710 485.348,214.400 485.348 C 212.090 485.348,211.145 485.414,212.300 485.495 M231.315 485.496 C 232.588 485.576,234.568 485.575,235.715 485.494 C 236.862 485.414,235.820 485.349,233.400 485.350 C 230.980 485.351,230.042 485.416,231.315 485.496 " stroke="none" fill="#747474" fill-rule="evenodd"></path></g></svg>